<?xml version="1.0" encoding="utf-8"?>
<!DOCTYPE svg PUBLIC "-//W3C//DTD SVG 20010904//EN" "http://www.w3.org/TR/2001/REC-SVG-20010904/DTD/svg10.dtd">
<svg version="1.0" xmlns="http://www.w3.org/2000/svg" width="180pt" height="180pt" viewBox="0 0 656 570" style="" preserveAspectRatio="xMidYMid meet">
<g fill="#FFFFFFFF" stroke="#FFFFFFFF">
<path d="M 286.254 240.897 C 202.474 283.962 141.840 366.285 127.027 457.081 C 125.011 469.440 123.317 489.000 124.264 489.000 C 124.566 489.000 129.357 486.302 134.910 483.005 C 156.035 470.462 184.754 457.188 208.198 449.132 C 244.547 436.642 279.443 430.076 322.500 427.624 L 343.500 426.428 337.000 424.212 C 322.066 419.119 309.296 411.167 296.829 399.194 C 282.186 385.132 271.658 367.269 266.271 347.345 C 263.852 338.397 263.609 335.860 263.609 319.500 C 263.609 303.169 263.854 300.594 266.254 291.723 C 271.467 272.450 280.784 256.294 295.361 241.250 C 299.758 236.713 302.937 233.013 302.427 233.030 C 301.917 233.046 294.639 236.586 286.254 240.897 "/></g>
<g fill="#FFFFFFFF" stroke="#FFFFFFFF">
<path d="M 479.491 286.750 C 483.813 297.471 485.323 324.805 482.434 340.032 C 474.227 383.299 440.346 418.544 398.291 427.563 C 390.318 429.272 388.158 431.000 393.992 431.000 C 395.573 431.000 403.084 432.142 410.683 433.538 C 477.660 445.842 538.067 473.227 590.500 515.056 C 604.798 526.463 623.648 543.540 630.811 551.578 C 633.648 554.760 636.215 557.118 636.517 556.817 C 636.984 556.350 621.054 528.306 584.631 465.474 C 580.159 457.760 554.900 414.004 528.500 368.240 C 502.100 322.475 480.114 285.024 479.643 285.016 C 479.172 285.007 479.103 285.788 479.491 286.750 "/></g>
<g fill="#FFFFFFFF" stroke="#FFFFFFFF">
<path d="M 301.981 104.198 C 281.916 138.956 265.500 167.644 265.500 167.948 C 265.500 168.251 271.719 168.791 279.320 169.146 C 333.563 171.682 371.665 184.699 420.132 217.254 C 431.706 225.028 444.303 234.284 448.126 237.823 C 451.948 241.362 455.336 243.997 455.654 243.680 C 456.253 243.080 339.941 41.000 338.996 41.000 C 338.703 41.000 322.046 69.439 301.981 104.198 "/></g>
<g fill="#FFFFFFFF" stroke="#FFFFFFFF">
<path d="M 258.704 179.100 C 217.369 250.253 172.131 329.465 172.577 329.910 C 172.899 330.233 174.139 329.151 175.332 327.507 C 194.368 301.268 223.316 273.422 252.000 253.757 C 277.354 236.374 302.035 224.652 331.292 216.097 C 355.543 209.005 363.875 208.244 395.000 210.272 C 398.109 210.475 397.495 209.945 389.500 205.530 C 354.228 186.050 321.357 177.300 276.094 175.341 L 261.261 174.699 258.704 179.100 "/></g>
<g fill="#FFFFFFFF" stroke="#FFFFFFFF">
<path d="M 90.142 471.092 C 62.482 518.993 40.147 558.481 40.509 558.842 C 40.871 559.204 44.000 556.350 47.463 552.500 C 59.857 538.722 86.270 515.870 106.089 501.778 L 116.500 494.376 117.282 485.938 C 120.679 449.305 127.753 418.341 138.605 392.611 C 140.472 388.183 142.000 384.435 142.000 384.280 C 142.000 381.822 132.693 397.402 90.142 471.092 "/></g>
</svg>
